<?xml version="1.0" encoding="utf-8"?>
<!-- Generator: Adobe Illustrator 24.0.1, SVG Export Plug-In . SVG Version: 6.00 Build 0)  -->
<svg version="1.1" id="图层_1" xmlns="http://www.w3.org/2000/svg" xmlns:xlink="http://www.w3.org/1999/xlink" x="0px" y="0px"
	 viewBox="0 0 161 46" style="enable-background:new 0 0 161 46;" xml:space="preserve">
<style type="text/css">
	.st0{clip-path:url(#SVGID_2_);fill:url(#SVGID_3_);}
	.st1{clip-path:url(#SVGID_5_);fill:url(#SVGID_6_);}
	.st2{clip-path:url(#SVGID_8_);fill:url(#SVGID_9_);}
	.st3{clip-path:url(#SVGID_11_);fill:url(#SVGID_12_);}
	.st4{clip-path:url(#SVGID_14_);fill:url(#SVGID_15_);}
	.st5{clip-path:url(#SVGID_17_);fill:url(#SVGID_18_);}
	.st6{clip-path:url(#SVGID_20_);fill:url(#SVGID_21_);}
	.st7{clip-path:url(#SVGID_23_);fill:url(#SVGID_24_);}
	.st8{clip-path:url(#SVGID_26_);fill:url(#SVGID_27_);}
	.st9{clip-path:url(#SVGID_29_);fill:url(#SVGID_30_);}
	.st10{clip-path:url(#SVGID_32_);fill:url(#SVGID_33_);}
	.st11{clip-path:url(#SVGID_35_);fill:url(#SVGID_36_);}
	.st12{clip-path:url(#SVGID_38_);fill:url(#SVGID_39_);}
	.st13{clip-path:url(#SVGID_41_);fill:url(#SVGID_42_);}
</style>
<g>
	<g>
		<defs>
			<path id="SVGID_1_" d="M92.77,5.71l-1.34,6.71c0.92-0.29,1.83-0.57,2.74-0.84c6.62-3.26,21.41-9.13,45.59-11.56
				C139.09,0,138.42,0,137.73,0C124.27,0,107.49,1.58,92.77,5.71"/>
		</defs>
		<clipPath id="SVGID_2_">
			<use xlink:href="#SVGID_1_"  style="overflow:visible;"/>
		</clipPath>
		
			<linearGradient id="SVGID_3_" gradientUnits="userSpaceOnUse" x1="-320.9764" y1="319.6081" x2="-319.0808" y2="319.6081" gradientTransform="matrix(33.5138 0 0 -33.5138 10848.7617 10717.4912)">
			<stop  offset="0" style="stop-color:#E50032"/>
			<stop  offset="0.3494" style="stop-color:#E00031"/>
			<stop  offset="0.7606" style="stop-color:#D2002D"/>
			<stop  offset="1" style="stop-color:#C6002A"/>
		</linearGradient>
		<rect x="91.42" class="st0" width="48.33" height="12.42"/>
	</g>
	<g>
		<defs>
			<path id="SVGID_4_" d="M94.17,11.58c23.36-7.07,45.62-9.2,56.32-9.83c4.21-0.24,6.64-0.27,6.64-0.27
				c-0.87-0.17-1.83-0.34-2.86-0.49c-3.88-0.56-8.86-0.92-14.51-0.98C115.58,2.45,100.78,8.32,94.17,11.58"/>
		</defs>
		<clipPath id="SVGID_5_">
			<use xlink:href="#SVGID_4_"  style="overflow:visible;"/>
		</clipPath>
		
			<linearGradient id="SVGID_6_" gradientUnits="userSpaceOnUse" x1="-325.9416" y1="320.3688" x2="-324.046" y2="320.3688" gradientTransform="matrix(-33.7837 0 0 33.7837 -10854.0254 -10817.4463)">
			<stop  offset="0" style="stop-color:#E50032"/>
			<stop  offset="0.1899" style="stop-color:#E00030"/>
			<stop  offset="0.4269" style="stop-color:#D0002B"/>
			<stop  offset="0.6886" style="stop-color:#B70022"/>
			<stop  offset="0.9667" style="stop-color:#940017"/>
			<stop  offset="1" style="stop-color:#8F0015"/>
		</linearGradient>
		<rect x="94.17" y="0.02" class="st1" width="62.96" height="11.56"/>
	</g>
	<g>
		<defs>
			<path id="SVGID_7_" d="M91.42,12.42"/>
		</defs>
		<clipPath id="SVGID_8_">
			<use xlink:href="#SVGID_7_"  style="overflow:visible;"/>
		</clipPath>
		
			<linearGradient id="SVGID_9_" gradientUnits="userSpaceOnUse" x1="91.423" y1="12.4197" x2="91.423" y2="12.4197" gradientTransform="matrix(0 1.000000e-03 1.000000e-03 0 23.2422 -3.1766)">
			<stop  offset="0" style="stop-color:#D7063A"/>
			<stop  offset="1" style="stop-color:#BA0227"/>
		</linearGradient>
		<path class="st2" d="M91.42,12.42"/>
	</g>
	<g>
		<defs>
			<path id="SVGID_10_" d="M114.58,11.18"/>
		</defs>
		<clipPath id="SVGID_11_">
			<use xlink:href="#SVGID_10_"  style="overflow:visible;"/>
		</clipPath>
		
			<linearGradient id="SVGID_12_" gradientUnits="userSpaceOnUse" x1="114.581" y1="11.1781" x2="114.581" y2="11.1781" gradientTransform="matrix(0 1.000000e-03 1.000000e-03 0 35.4593 -3.8323)">
			<stop  offset="0" style="stop-color:#D7063A"/>
			<stop  offset="1" style="stop-color:#BA0227"/>
		</linearGradient>
		<path class="st3" d="M114.58,11.18"/>
	</g>
	<g>
		<defs>
			<path id="SVGID_13_" d="M19.52,1.46c8.89,0.46,21.5,2.08,23.88,7.52c0.24,0.42,0.39,0.9,0.39,1.47
				c0,5.75-19.16,10.76-19.16,10.76l12.07,12h13.7c-5.85-6.73-13.36-12-13.36-12c9.49-0.32,17.42-4.68,17.42-11.41
				c0-1.13-0.2-2.12-0.57-3.02c-1.45-3.56-5.59-5.33-10.95-5.33H19.52z"/>
		</defs>
		<clipPath id="SVGID_14_">
			<use xlink:href="#SVGID_13_"  style="overflow:visible;"/>
		</clipPath>
		
			<linearGradient id="SVGID_15_" gradientUnits="userSpaceOnUse" x1="-324.3108" y1="318.2845" x2="-322.4152" y2="318.2845" gradientTransform="matrix(0 -24.4149 -24.4149 0 7807.8687 -7871.0547)">
			<stop  offset="0" style="stop-color:#E50032"/>
			<stop  offset="0.3494" style="stop-color:#E00031"/>
			<stop  offset="0.7606" style="stop-color:#D2002D"/>
			<stop  offset="1" style="stop-color:#C6002A"/>
		</linearGradient>
		<rect x="19.52" y="1.46" class="st4" width="34.94" height="31.75"/>
	</g>
	<g>
		<defs>
			<path id="SVGID_16_" d="M10.52,1.46L8.35,6.51h28.37c0,0,5.22-0.11,6.67,2.47c-2.39-5.44-14.99-7.06-23.88-7.52H10.52z"/>
		</defs>
		<clipPath id="SVGID_17_">
			<use xlink:href="#SVGID_16_"  style="overflow:visible;"/>
		</clipPath>
		
			<linearGradient id="SVGID_18_" gradientUnits="userSpaceOnUse" x1="-321.5406" y1="319.354" x2="-319.645" y2="319.354" gradientTransform="matrix(19.1869 0 0 -19.1869 6176.1846 6132.6304)">
			<stop  offset="0" style="stop-color:#E50032"/>
			<stop  offset="0.1899" style="stop-color:#E00030"/>
			<stop  offset="0.4269" style="stop-color:#D0002B"/>
			<stop  offset="0.6886" style="stop-color:#B70022"/>
			<stop  offset="0.9667" style="stop-color:#940017"/>
			<stop  offset="1" style="stop-color:#8F0015"/>
		</linearGradient>
		<rect x="8.35" y="1.46" class="st5" width="35.05" height="7.52"/>
	</g>
	<g>
		<defs>
			<polygon id="SVGID_19_" points="13.97,9.75 5.48,33.16 16.59,33.16 25.05,9.75 			"/>
		</defs>
		<clipPath id="SVGID_20_">
			<use xlink:href="#SVGID_19_"  style="overflow:visible;"/>
		</clipPath>
		
			<linearGradient id="SVGID_21_" gradientUnits="userSpaceOnUse" x1="-324.3162" y1="318.6989" x2="-322.4207" y2="318.6989" gradientTransform="matrix(0 -24.417 -24.417 0 7796.9375 -7871.8638)">
			<stop  offset="0" style="stop-color:#E50032"/>
			<stop  offset="0.3494" style="stop-color:#E00031"/>
			<stop  offset="0.7606" style="stop-color:#D2002D"/>
			<stop  offset="1" style="stop-color:#C6002A"/>
		</linearGradient>
		<rect x="5.48" y="9.75" class="st6" width="19.58" height="23.41"/>
	</g>
	<g>
		<defs>
			<path id="SVGID_22_" d="M128.7,9.45c-2.74,0.27-5.51,0.59-8.27,0.94l-5.39,22.84h8.54l5.65-23.84
				C129.05,9.42,128.88,9.44,128.7,9.45"/>
		</defs>
		<clipPath id="SVGID_23_">
			<use xlink:href="#SVGID_22_"  style="overflow:visible;"/>
		</clipPath>
		
			<linearGradient id="SVGID_24_" gradientUnits="userSpaceOnUse" x1="-324.3276" y1="316.6189" x2="-322.432" y2="316.6189" gradientTransform="matrix(0 -24.42 -24.42 0 7853.9717 -7873.1118)">
			<stop  offset="0" style="stop-color:#E50032"/>
			<stop  offset="0.3494" style="stop-color:#E00031"/>
			<stop  offset="0.7606" style="stop-color:#D2002D"/>
			<stop  offset="1" style="stop-color:#C6002A"/>
		</linearGradient>
		<rect x="115.04" y="9.4" class="st7" width="14.19" height="23.84"/>
	</g>
	<g>
		<defs>
			<path id="SVGID_25_" d="M114.58,11.18"/>
		</defs>
		<clipPath id="SVGID_26_">
			<use xlink:href="#SVGID_25_"  style="overflow:visible;"/>
		</clipPath>
		
			<linearGradient id="SVGID_27_" gradientUnits="userSpaceOnUse" x1="-1408.9827" y1="105.5163" x2="-1408.9827" y2="105.5163" gradientTransform="matrix(-0.0728 0 0 -0.0728 12.0071 18.8597)">
			<stop  offset="0" style="stop-color:#D7063A"/>
			<stop  offset="1" style="stop-color:#BA0227"/>
		</linearGradient>
		<path class="st8" d="M114.58,11.18"/>
	</g>
	<g>
		<defs>
			<path id="SVGID_28_" d="M105.65,12.54c-1.95,8.76-3.74,15.83-5.37,21.14c-0.75,2.4-1.64,4.09-2.66,5.1
				c-1.21,1.21-3.2,2.16-5.99,2.81c-0.03,0.03-0.05,0.05-0.07,0.07l-1.08,4.57c2.71-0.21,9.82-1.18,14.17-5.42
				c2.34-2.28,3.87-5.64,4.65-8.42l5.27-21.2C111.54,11.61,108.54,12.07,105.65,12.54"/>
		</defs>
		<clipPath id="SVGID_29_">
			<use xlink:href="#SVGID_28_"  style="overflow:visible;"/>
		</clipPath>
		
			<linearGradient id="SVGID_30_" gradientUnits="userSpaceOnUse" x1="-324.3089" y1="317.0183" x2="-322.4133" y2="317.0183" gradientTransform="matrix(0 -24.4177 -24.4177 0 7843.395 -7871.9116)">
			<stop  offset="0" style="stop-color:#E50032"/>
			<stop  offset="0.3494" style="stop-color:#E00031"/>
			<stop  offset="0.7606" style="stop-color:#D2002D"/>
			<stop  offset="1" style="stop-color:#C6002A"/>
		</linearGradient>
		<rect x="90.49" y="11.18" class="st9" width="24.09" height="35.05"/>
	</g>
	<g>
		<defs>
			<path id="SVGID_31_" d="M90.9,15.13l-4.35,18.11h8.54l4.65-19.71C96.57,14.08,93.59,14.62,90.9,15.13"/>
		</defs>
		<clipPath id="SVGID_32_">
			<use xlink:href="#SVGID_31_"  style="overflow:visible;"/>
		</clipPath>
		
			<linearGradient id="SVGID_33_" gradientUnits="userSpaceOnUse" x1="-324.3262" y1="317.1812" x2="-322.4307" y2="317.1812" gradientTransform="matrix(0 -24.419 -24.419 0 7838.3936 -7872.7549)">
			<stop  offset="0" style="stop-color:#E50032"/>
			<stop  offset="0.3494" style="stop-color:#E00031"/>
			<stop  offset="0.7606" style="stop-color:#D2002D"/>
			<stop  offset="1" style="stop-color:#C6002A"/>
		</linearGradient>
		<rect x="86.55" y="13.53" class="st10" width="13.19" height="19.71"/>
	</g>
	<g>
		<defs>
			<path id="SVGID_34_" d="M77.79,8.67c0,0-1.73,9.62-3.32,15.02c-0.2,0.71-0.42,1.35-0.71,1.93l0,0.01
				c-0.02,0.02-0.03,0.04-0.04,0.06c-0.09,0.18-0.19,0.36-0.31,0.53c-0.82,1.23-2.21,2.05-5.1,2.31c-3.68,0.32-5.46-0.61-4.91-3.16
				l4.1-16.7h-9.09l-4.4,19c-0.39,2.36,0.72,4.02,3.02,4.87c1.19,0.45,2.69,0.69,4.47,0.69c14.02,0,18.89-0.31,20.8-6.1
				c1-3.04,4.37-18.47,4.37-18.47H77.79z"/>
		</defs>
		<clipPath id="SVGID_35_">
			<use xlink:href="#SVGID_34_"  style="overflow:visible;"/>
		</clipPath>
		
			<linearGradient id="SVGID_36_" gradientUnits="userSpaceOnUse" x1="-324.3257" y1="317.6301" x2="-322.4301" y2="317.6301" gradientTransform="matrix(0 -24.4176 -24.4176 0 7825.9136 -7872.2881)">
			<stop  offset="0" style="stop-color:#E50032"/>
			<stop  offset="0.3494" style="stop-color:#E00031"/>
			<stop  offset="0.7606" style="stop-color:#D2002D"/>
			<stop  offset="1" style="stop-color:#C6002A"/>
		</linearGradient>
		<rect x="53.63" y="8.67" class="st11" width="33.05" height="24.56"/>
	</g>
	<g>
		<defs>
			<path id="SVGID_37_" d="M129.14,23.21c-0.21,2.96,1.43,7.97,8.82,9.57c6.89,1.49,15.16-1.49,17.24-2.38l1.53-5.91
				c0,0-5.57,4.12-11.92,5.26c-7.55,1.36-16.05-0.73-15.4-8.32C129.26,22.04,129.17,22.63,129.14,23.21"/>
		</defs>
		<clipPath id="SVGID_38_">
			<use xlink:href="#SVGID_37_"  style="overflow:visible;"/>
		</clipPath>
		
			<linearGradient id="SVGID_39_" gradientUnits="userSpaceOnUse" x1="-324.3068" y1="316.2463" x2="-322.4113" y2="316.2463" gradientTransform="matrix(0 -24.415 -24.415 0 7863.8931 -7870.9873)">
			<stop  offset="0" style="stop-color:#E50032"/>
			<stop  offset="0.3494" style="stop-color:#E00031"/>
			<stop  offset="0.7606" style="stop-color:#D2002D"/>
			<stop  offset="1" style="stop-color:#C6002A"/>
		</linearGradient>
		<rect x="128.75" y="21.44" class="st12" width="27.97" height="12.84"/>
	</g>
	<g>
		<defs>
			<path id="SVGID_40_" d="M148.16,13.61c5.18-1.47,5.35,5.99-1.99,7.46c-7.35,1.46-7.55,1.45-7.55,1.45S139.99,15.92,148.16,13.61
				 M148.39,8.47c-5.54,0.37-9.26,1.65-12.94,4.36c-3.57,2.63-5.39,5.68-6.05,8.61c-0.64,7.59,7.86,9.68,15.4,8.32
				c6.36-1.14,11.92-5.26,11.92-5.26c-2,1.05-16.91,8.55-18.12,0.1l0,0c0.12-0.02,11.83-2.05,13.83-2.45
				c2.24-0.44,7.11-2.04,7.54-6.28c0.15-1.48-0.28-2.88-1.21-4.06c-1.59-2.01-4.66-3.39-8.95-3.39
				C149.35,8.42,148.88,8.43,148.39,8.47"/>
		</defs>
		<clipPath id="SVGID_41_">
			<use xlink:href="#SVGID_40_"  style="overflow:visible;"/>
		</clipPath>
		
			<linearGradient id="SVGID_42_" gradientUnits="userSpaceOnUse" x1="-322.3131" y1="326.1745" x2="-320.4176" y2="326.1745" gradientTransform="matrix(0 15.0364 15.0364 0 -4760.0527 4846.8901)">
			<stop  offset="0" style="stop-color:#E50032"/>
			<stop  offset="0.2692" style="stop-color:#E00030"/>
			<stop  offset="0.6048" style="stop-color:#D0002C"/>
			<stop  offset="0.9743" style="stop-color:#B70025"/>
			<stop  offset="1" style="stop-color:#B50024"/>
		</linearGradient>
		<rect x="128.75" y="8.42" class="st13" width="31.37" height="24.63"/>
	</g>
</g>
</svg>
